<svg width="19" height="17" viewBox="0 0 19 17" fill="none" xmlns="http://www.w3.org/2000/svg">
<path d="M16.8854 2.1126C16.4801 1.70703 15.9987 1.3853 15.469 1.1658C14.9392 0.946292 14.3714 0.833313 13.798 0.833313C13.2246 0.833313 12.6568 0.946292 12.127 1.1658C11.5973 1.3853 11.1159 1.70703 10.7106 2.1126L9.86926 2.9539L9.02795 2.1126C8.20911 1.29376 7.09853 0.833737 5.94051 0.833737C4.7825 0.833737 3.67192 1.29376 2.85308 2.1126C2.03424 2.93144 1.57422 4.04202 1.57422 5.20003C1.57422 6.35805 2.03424 7.46863 2.85308 8.28747L3.69438 9.12878L9.86926 15.3037L16.0441 9.12878L16.8854 8.28747C17.291 7.88209 17.6127 7.40078 17.8322 6.87102C18.0517 6.34127 18.1647 5.77346 18.1647 5.20003C18.1647 4.6266 18.0517 4.0588 17.8322 3.52904C17.6127 2.99929 17.291 2.51798 16.8854 2.1126V2.1126Z" stroke="#4B5563" stroke-width="1.5" stroke-linecap="round" stroke-linejoin="round"/>
</svg>
